HIERARCHY
ROOT Hips
{
	OFFSET	0.00	0.00	0.00
	CHANNELS 6 Xposition Yposition Zposition Zrotation Xrotation Yrotation
	JOINT LeftUpLeg
	{
		OFFSET	 0.126116	-0.014019	-0.065224
		CHANNELS 3 Zrotation Xrotation Yrotation
		JOINT LeftLeg
		{
			OFFSET	 0.000000	 0.000000	 0.569914
			CHANNELS 3 Zrotation Xrotation Yrotation
			JOINT LeftFoot
			{
				OFFSET	 0.000000	 0.000000	 0.544423
				CHANNELS 3 Zrotation Xrotation Yrotation
				JOINT LeftToeBase
				{
					OFFSET	 0.000000	 0.000000	 0.207117
					CHANNELS 3 Zrotation Xrotation Yrotation
					End Site
					{
						OFFSET	 0.000000	 0.000000	 0.207117
					}
				}
			}
		}
	}
	JOINT RightUpLeg
	{
		OFFSET	-0.124023	-0.008373	-0.065224
		CHANNELS 3 Zrotation Xrotation Yrotation
		JOINT RightLeg
		{
			OFFSET	 0.000000	 0.000000	 0.570047
			CHANNELS 3 Zrotation Xrotation Yrotation
			JOINT RightFoot
			{
				OFFSET	 0.000000	 0.000000	 0.544354
				CHANNELS 3 Zrotation Xrotation Yrotation
				JOINT RightToeBase
				{
					OFFSET	 0.000000	 0.000000	 0.207540
					CHANNELS 3 Zrotation Xrotation Yrotation
					End Site
					{
						OFFSET	 0.000000	 0.000000	 0.207540
					}
				}
			}
		}
	}
	JOINT Spine
	{
		OFFSET	 0.000184	-0.007763	 0.117403
		CHANNELS 3 Zrotation Xrotation Yrotation
		JOINT Spine1
		{
			OFFSET	 0.000000	 0.000000	 0.137269
			CHANNELS 3 Zrotation Xrotation Yrotation
			JOINT Spine2
			{
				OFFSET	 0.000000	 0.000000	 0.156879
				CHANNELS 3 Zrotation Xrotation Yrotation
				JOINT LeftShoulder
				{
					OFFSET	 0.080501	-0.002496	 0.160144
					CHANNELS 3 Zrotation Xrotation Yrotation
					JOINT LeftArm
					{
						OFFSET	 0.000000	 0.000000	 0.164363
						CHANNELS 3 Zrotation Xrotation Yrotation
						JOINT LeftForeArm
						{
							OFFSET	 0.000000	 0.000000	 0.364576
							CHANNELS 3 Zrotation Xrotation Yrotation
							JOINT LeftHand
							{
								OFFSET	 0.000000	 0.000000	 0.360812
								CHANNELS 3 Zrotation Xrotation Yrotation
								JOINT LeftHandIndex1
								{
									OFFSET	 0.000000	 0.000000	 0.086006
									CHANNELS 3 Zrotation Xrotation Yrotation
									JOINT LeftHandIndex2
									{
										OFFSET	 0.000000	 0.000000	 0.047236
										CHANNELS 3 Zrotation Xrotation Yrotation
										JOINT LeftHandIndex3
										{
											OFFSET	-0.004284	-0.000551	 0.038166
											CHANNELS 3 Zrotation Xrotation Yrotation
											End Site
											{
												OFFSET	-0.004284	-0.000551	 0.038166
											}
										}
									}
								}
							}
						}
					}
				}
				JOINT Neck
				{
					OFFSET	 0.000000	 0.000000	 0.176489
					CHANNELS 3 Zrotation Xrotation Yrotation
					JOINT Head
					{
						OFFSET	 0.000000	-0.001747	 0.077940
						CHANNELS 3 Zrotation Xrotation Yrotation
						End Site
						{
							OFFSET	 0.000000	-0.001747	 0.077940
						}
					}
				}
				JOINT RightShoulder
				{
					OFFSET	-0.080363	 0.000306	 0.159706
					CHANNELS 3 Zrotation Xrotation Yrotation
					JOINT RightArm
					{
						OFFSET	 0.000000	 0.000000	 0.164196
						CHANNELS 3 Zrotation Xrotation Yrotation
						JOINT RightForeArm
						{
							OFFSET	 0.000000	 0.000000	 0.365611
							CHANNELS 3 Zrotation Xrotation Yrotation
							JOINT RightHand
							{
								OFFSET	 0.000000	 0.000000	 0.360648
								CHANNELS 3 Zrotation Xrotation Yrotation
								JOINT RightHandIndex1
								{
									OFFSET	 0.000000	 0.000000	 0.069977
									CHANNELS 3 Zrotation Xrotation Yrotation
									JOINT RightHandIndex2
									{
										OFFSET	 0.000000	 0.000000	 0.052305
										CHANNELS 3 Zrotation Xrotation Yrotation
										JOINT RightHandIndex3
										{
											OFFSET	 0.009002	-0.000782	 0.042196
											CHANNELS 3 Zrotation Xrotation Yrotation
											End Site
											{
												OFFSET	 0.009002	-0.000782	 0.042196
											}
										}
									}
								}
							}
						}
					}
				}
			}
		}
	}
}
MOTION
Frames:    10
Frame Time: 0.03333334
-12.474260	-36.270760	 0.883617	-37.121420	 17.134150	 3.757541	 3.430785	-34.931260	 175.246400	-1.049934	-43.179700	-0.197937	-0.653054	 80.678880	 0.590977	-2.350480	 34.410190	-0.134772	-0.720989	-36.179920	-179.561700	-3.062924	-43.306290	-0.999641	-1.595237	 80.799930	 0.431051	 2.406805	 19.677640	-0.179491	 29.545180	 15.536780	 2.503902	-8.066024	 2.940083	-1.631069	-10.373030	-2.727024	-0.933881	-125.814400	 89.282910	-141.746600	 53.773990	 65.524890	-61.108430	-37.086490	 15.250110	-30.128130	 52.120830	-15.483070	 11.919360	-5.749716	-12.376260	-1.516372	-5.213516	-0.193813	 3.566525	-1.378229	 35.397820	-2.634230	 0.822196	 0.194468	-3.830773	-2.528049	-6.819199	 0.806570	 93.695030	 85.933500	 171.999500	-62.189440	 74.168530	 72.119580	 20.099580	 6.488600	 45.410780	-77.554270	-19.468540	-10.163450	-10.054790	-10.301690	-39.032920	 5.070815	-0.697434	-9.399699	-2.350882	 35.473990	 5.254307
-12.477320	-36.277220	 0.884313	-37.013210	 17.459480	 3.764826	 3.559838	-34.846810	 175.425600	-1.441187	-43.064280	-0.393195	-0.780115	 80.998670	 0.478925	-2.353250	 34.039100	-0.125974	-0.743849	-36.004270	-179.483200	-2.942579	-42.998680	-0.934002	-1.604979	 81.327420	 0.544546	 2.406609	 19.906070	-0.174965	 28.258740	 15.417280	 2.401568	-8.074213	 2.797811	-1.677627	-10.395220	-2.915652	-0.952926	-125.549000	 89.278550	-142.014800	 55.880890	 66.192990	-61.803340	-35.565830	 13.789230	-29.203170	 52.414500	-14.675640	 10.892350	-5.616494	-12.163550	-1.225675	-5.213516	-0.193813	 3.566525	-1.378229	 35.397820	-2.634230	 0.799972	 0.102434	-3.792851	-2.537928	-7.086895	 0.923332	 93.698300	 85.953200	 172.022600	-60.889280	 75.236410	 70.091130	 19.594480	 4.797509	 41.691270	-78.429020	-18.653440	-9.132222	-9.830598	-9.849825	-38.834380	 5.070815	-0.697434	-9.399699	-2.350882	 35.473990	 5.254307
-12.480140	-36.283050	 0.884625	-36.938530	 17.747700	 3.779734	 3.617538	-34.859410	 175.529700	-1.739269	-43.077050	-0.566000	-0.881771	 81.305730	 0.371760	-2.353824	 33.960020	-0.124108	-0.762653	-35.875290	-179.422400	-2.803504	-42.780430	-0.852908	-1.595258	 81.837810	 0.655321	 2.406254	 20.278760	-0.167566	 26.956620	 15.295340	 2.302929	-8.063178	 2.674290	-1.730181	-10.426020	-3.077590	-0.970433	-125.035400	 89.267250	-142.515900	 57.760940	 66.729210	-62.451710	-34.037640	 12.474800	-28.364160	 52.551800	-13.946090	 9.883323	-5.468294	-12.009520	-0.894551	-5.213516	-0.193813	 3.566525	-1.378229	 35.397820	-2.634230	 0.772458	 0.007183	-3.727009	-2.569216	-7.314200	 0.948016	 93.691130	 85.969730	 172.062400	-58.750850	 76.342320	 67.081440	 18.884080	 3.315236	 38.593350	-79.156350	-17.911930	-8.109123	-9.611836	-9.413914	-38.634480	 5.070815	-0.697434	-9.399699	-2.350882	 35.473990	 5.254307
-12.483840	-36.290280	 0.884755	-36.913390	 18.112420	 3.801701	 3.591111	-34.961430	 175.576000	-1.969511	-43.215490	-0.742852	-0.985329	 81.704090	 0.264265	-2.351569	 34.266080	-0.131344	-0.767819	-35.707180	-179.414000	-2.608308	-42.556520	-0.725475	-1.555908	 82.454150	 0.794882	 2.405596	 20.856930	-0.156045	 25.058450	 15.114590	 2.210455	-8.026270	 2.515871	-1.789250	-10.475140	-3.274598	-0.992960	-123.793800	 89.238430	-143.722800	 60.074640	 67.328130	-63.275220	-31.837520	 10.780170	-27.274820	 52.553800	-13.006020	 8.486107	-5.190081	-11.750910	-0.266520	-5.213516	-0.193813	 3.566525	-1.378229	 35.397820	-2.634230	 0.736125	-0.140274	-3.613688	-2.637363	-7.593191	 0.845159	 93.665200	 85.990930	 172.146700	-54.755810	 77.734210	 61.834390	 17.591320	 1.505562	 35.123950	-79.888430	-16.943160	-6.695697	-9.328113	-8.840172	-38.376910	 5.070815	-0.697434	-9.399699	-2.350882	 35.473990	 5.254307
-12.486060	-36.294530	 0.884780	-36.950780	 18.301650	 3.819443	 3.570412	-34.968660	 175.605900	-2.038372	-43.339300	-0.807512	-1.026245	 81.929970	 0.228167	-2.349060	 34.596740	-0.139216	-0.755285	-35.584380	-179.439100	-2.492689	-42.438490	-0.640763	-1.518144	 82.752880	 0.869784	 2.405225	 21.143160	-0.150321	 23.795930	 15.021150	 2.176793	-7.983169	 2.409540	-1.806662	-10.492030	-3.400056	-1.006003	-122.666000	 89.210190	-144.821700	 61.365570	 67.649590	-63.727930	-30.414190	 9.771051	-26.615990	 52.440350	-12.444880	 7.609427	-4.958413	-11.523020	 0.260190	-5.213516	-0.193813	 3.566525	-1.378229	 35.397820	-2.634230	 0.731321	-0.245929	-3.541988	-2.672554	-7.766399	 0.761353	 93.653660	 86.009740	 172.198300	-51.710580	 78.493550	 58.022160	 16.655180	 0.473443	 33.384610	-80.157800	-16.359930	-5.802062	-9.169611	-8.507098	-38.239730	 5.070815	-0.697434	-9.399699	-2.350882	 35.473990	 5.254307
-12.488610	-36.299420	 0.884814	-37.048580	 18.500040	 3.845665	 3.551707	-34.980020	 175.626500	-2.072061	-43.496390	-0.848223	-1.057054	 82.169000	 0.209830	-2.345412	 35.063330	-0.150403	-0.743511	-35.418540	-179.471000	-2.370950	-42.321770	-0.552353	-1.474600	 83.026920	 0.941989	 2.404919	 21.358630	-0.145999	 22.173950	 14.918330	 2.142220	-7.915040	 2.268682	-1.796667	-10.497050	-3.560679	-1.021127	-120.938300	 89.163970	-146.509100	 62.740130	 68.026280	-64.176650	-28.694560	 8.596474	-25.828800	 52.157280	-11.786490	 6.550170	-4.626989	-11.216790	 1.021531	-5.213516	-0.193813	 3.566525	-1.378229	 35.397820	-2.634230	 0.750528	-0.385244	-3.466735	-2.708297	-7.973038	 0.707900	 93.689640	 86.065380	 172.208500	-47.665780	 79.267880	 53.115860	 15.440980	-0.681840	 31.509050	-80.252180	-15.671390	-4.713643	-9.006816	-8.143000	-38.112850	 5.070815	-0.697434	-9.399699	-2.350882	 35.473990	 5.254307
-12.491290	-36.304500	 0.884947	-37.203590	 18.695180	 3.887106	 3.543621	-34.951570	 175.636200	-2.095482	-43.640980	-0.876035	-1.083237	 82.372670	 0.202800	-2.341461	 35.550010	-0.162181	-0.734213	-35.249190	-179.521900	-2.289276	-42.236510	-0.491682	-1.444875	 83.226590	 0.992789	 2.404748	 21.473650	-0.143695	 20.252780	 14.811380	 2.088392	-7.833518	 2.113674	-1.753641	-10.487470	-3.731958	-1.035790	-118.591000	 89.096910	-148.823200	 63.990170	 68.448440	-64.509820	-26.870380	 7.374189	-24.968400	 51.605810	-11.088520	 5.402048	-4.309855	-10.900620	 1.757187	-5.213516	-0.193813	 3.566525	-1.378229	 35.397820	-2.634230	 0.788573	-0.495331	-3.383911	-2.733369	-8.208303	 0.715051	 93.785700	 86.160480	 172.159700	-43.039710	 79.923420	 47.642540	 14.050470	-1.839182	 29.688360	-80.009300	-14.935780	-3.521385	-8.874059	-7.814454	-38.030720	 5.070815	-0.697434	-9.399699	-2.350882	 35.473990	 5.254307
-12.493390	-36.308610	 0.885195	-37.356810	 18.862660	 3.930963	 3.551987	-34.889040	 175.662900	-2.144444	-43.708930	-0.909785	-1.110152	 82.485500	 0.191176	-2.338370	 35.919990	-0.171200	-0.729665	-35.278030	-179.581800	-2.315539	-42.188580	-0.506728	-1.462026	 83.320400	 0.999260	 2.404670	 21.533490	-0.142494	 18.415970	 14.713240	 2.013642	-7.772123	 1.987787	-1.692282	-10.466760	-3.866662	-1.045977	-116.192800	 89.019810	-151.212600	 64.882480	 68.817070	-64.677340	-25.329940	 6.361279	-24.211400	 50.876080	-10.497280	 4.417984	-4.131783	-10.693510	 2.173409	-5.213516	-0.193813	 3.566525	-1.378229	 35.397820	-2.634230	 0.829972	-0.534280	-3.295272	-2.739500	-8.417959	 0.757356	 93.910350	 86.264880	 172.073000	-39.021310	 80.334740	 42.945090	 12.817110	-2.765330	 28.270640	-79.439870	-14.306890	-2.487283	-8.788314	-7.624740	-37.961350	 5.070815	-0.697434	-9.399699	-2.350882	 35.473990	 5.254307
-12.495590	-36.313140	 0.885754	-37.542110	 19.063900	 3.958211	 3.567329	-34.823510	 175.703300	-2.242884	-43.687850	-0.970137	-1.148260	 82.520520	 0.161372	-2.334989	 36.312020	-0.180842	-0.756112	-35.308250	-179.548900	-2.403487	-42.153400	-0.581952	-1.520623	 83.351200	 0.975842	 2.404606	 21.567600	-0.141807	 16.161580	 14.579590	 1.932888	-7.714572	 1.853651	-1.603393	-10.427290	-4.006373	-1.054661	-113.249100	 88.908190	-154.163400	 65.711720	 69.199510	-64.814120	-23.615550	 5.272997	-23.353320	 49.778110	-9.855750	 3.347489	-4.015562	-10.593050	 2.446959	-5.213516	-0.193813	 3.566525	-1.378229	 35.397820	-2.634230	 0.874937	-0.561950	-3.162820	-2.717469	-8.620145	 0.831368	 94.098520	 86.395160	 171.911500	-34.890220	 80.621370	 38.112040	 11.303400	-3.767663	 26.834370	-78.474430	-13.616020	-1.346567	-8.732783	-7.556526	-37.877350	 5.070815	-0.697434	-9.399699	-2.350882	 35.473990	 5.254307
-12.497460	-36.316880	 0.886542	-37.699010	 19.242680	 3.946412	 3.574600	-34.794490	 175.736900	-2.351250	-43.631330	-1.039481	-1.184207	 82.480260	 0.121691	-2.332126	 36.635270	-0.188847	-0.789009	-35.355870	-179.493100	-2.491658	-42.129110	-0.661187	-1.583023	 83.374660	 0.951094	 2.404590	 21.580570	-0.141548	 13.990150	 14.461890	 1.884719	-7.678014	 1.743277	-1.514340	-10.389210	-4.118471	-1.060900	-111.021400	 88.804330	-156.405500	 66.337020	 69.477330	-64.972980	-22.008990	 4.321616	-22.567350	 48.635840	-9.314454	 2.448145	-3.956953	-10.673610	 2.586032	-5.213516	-0.193813	 3.566525	-1.378229	 35.397820	-2.634230	 0.907806	-0.619979	-3.031224	-2.688581	-8.725544	 0.921200	 94.302940	 86.511600	 171.710200	-31.734510	 80.752500	 34.395790	 9.754250	-4.673588	 25.668310	-77.440220	-13.023700	-0.371256	-8.705331	-7.578362	-37.796360	 5.070815	-0.697434	-9.399699	-2.350882	 35.473990	 5.254307
